<svg width="192" height="192" viewBox="0 0 192 192" fill="none" xmlns="http://www.w3.org/2000/svg">
<rect width="192" height="192" rx="48" fill="#25B4B9"/>
<path d="M35.92 27.812H83.884V36.884C83.884 47.72 82.372 55.868 80.776 61.496C79.852 64.772 78.76 67.544 77.668 69.896H67.252C69.94 64.604 70.528 60.404 71.452 55.028H37.264V45.62H72.712C72.964 41.168 73.3 39.488 73.048 37.304H35.92V27.812ZM28.36 83.504V73.592H91.528V83.504H28.36ZM106.315 52.34V33.02H143.863V28.904H106.315V21.764H155.035V41.084H116.647V44.36H155.035V52.424H106.063L106.315 52.34ZM163.351 58.976V69.056H136.303V92.324H125.215V69.056H98.2506V58.976H163.351ZM46.504 99.948H57.172C63.22 99.948 68.26 104.988 68.26 111.372V121.956C68.26 128.256 63.22 133.464 57.172 133.464H46.504C40.372 133.464 34.996 128.256 34.996 121.956V111.372C34.996 104.988 40.372 99.948 46.504 99.948ZM89.848 168.408H79.012V97.848H89.848V168.408ZM75.988 147.996H55.072V168.324H44.404V147.996H28.36V138.756H75.988V147.996ZM58.516 119.772V113.556C58.516 110.868 56.416 108.768 53.728 108.768H50.032C47.26 108.768 44.824 110.868 44.824 113.556V119.772C44.824 122.46 47.26 124.56 50.032 124.56H53.728C56.416 124.56 58.516 122.46 58.516 119.772ZM99.4909 104.484H135.779V112.296C135.779 131.616 113.015 154.128 103.355 160.848V146.736C109.319 141.696 113.519 136.908 116.543 131.952H100.415V123.216H121.247C122.927 120.948 123.599 118.092 124.187 115.32H99.4909V104.484ZM156.275 168.408H145.187V97.764H156.275V168.408Z" fill="white"/>
</svg>
